
      <svg xmlns="http://www.w3.org/2000/svg" width="1024" height="1024" viewBox="0 0 1024 1024">
        
      <defs>
        <linearGradient id="grad1" x1="0%" y1="0%" x2="100%" y2="100%">
          <stop offset="0%" style="stop-color:#84cc16" />
          <stop offset="100%" style="stop-color:#22c55e" />
        </linearGradient>
      </defs>
    
        <rect x="0" y="0" width="1024" height="1024" rx="240" ry="240" fill="url(#grad1)" />
        <g transform="translate(512, 512) rotate(0)">
           <g transform="translate(-400, -400)">
             <svg xmlns="http://www.w3.org/2000/svg" width="800" height="800" viewBox="0 0 24 24" fill="#ffffff" stroke="#ffffff" stroke-width="0.72" stroke-linecap="round" stroke-linejoin="round" class="lucide lucide-leaf" fill-opacity="0"><path d="M11 20A7 7 0 0 1 9.8 6.1C15.5 5 17 4.48 19 2c1 2 2 4.18 2 8 0 5.5-4.78 10-10 10Z"></path><path d="M2 21c0-3 1.85-5.36 5.08-6C9.5 14.52 12 13 13 12"></path></svg>
           </g>
        </g>
      </svg>
    